<mxfile host="app.diagrams.net" modified="2023-06-13T18:07:04.299Z" agent="Mozilla/5.0 (Windows NT 10.0; Win64; x64) AppleWebKit/537.36 (KHTML, like Gecko) Chrome/109.0.0.0 Safari/537.36" version="21.3.8" etag="2fREwO15jJfRsxnBordU" type="github">
  <diagram name="Page-1" id="v39cyToKjADJRDiGtKNt">
    <mxGraphModel>
      <root>
        <mxCell id="0" />
        <mxCell id="1" parent="0" />
      </root>
    </mxGraphModel>
  </diagram>
</mxfile>
